<svg width="650" height="324" viewBox="0 0 650 324" fill="none" xmlns="http://www.w3.org/2000/svg">
<path d="M399.881 274.852C525.223 274.852 626.833 272.468 626.833 269.527C626.833 266.586 525.223 264.202 399.881 264.202C274.539 264.202 172.928 266.586 172.928 269.527C172.928 272.468 274.539 274.852 399.881 274.852Z" fill="#FFE8E1"/>
<path d="M277.037 230.596L270.875 269.22H279.277L296.062 230.596H277.037Z" fill="#FFD5C9"/>
<path d="M620.201 148.318L616.232 86.9242C615.942 82.477 613.971 78.3067 610.72 75.2588C607.469 72.211 603.18 70.5138 598.723 70.5115H281.733C277.275 70.5094 272.984 72.2051 269.731 75.2538C266.479 78.3025 264.509 82.4754 264.224 86.9242L260.246 148.318L268.081 211.005L439.494 216.005H440.228H440.953L612.366 210.967L620.201 148.318Z" fill="#FFF2EB"/>
<path d="M285.572 163.439C285.219 167.996 285.4 172.578 286.111 177.092C286.531 179.244 287.69 181.181 289.387 182.569C291.084 183.957 293.212 184.709 295.405 184.694H428.305C430.555 184.691 432.731 183.888 434.443 182.426C436.154 180.965 437.289 178.942 437.645 176.72C438.364 172.444 438.364 168.078 437.645 163.802C437.257 161.644 436.127 159.69 434.45 158.278C432.773 156.866 430.655 156.085 428.463 156.069L295.098 154.573C292.677 154.55 290.339 155.456 288.566 157.106C286.793 158.755 285.722 161.023 285.572 163.439Z" fill="#FFE2D7"/>
<path d="M448.869 218.718V217.938L440.226 218.328L431.574 217.938V218.718L267.521 226.116V237.315H431.574H448.869H612.922V226.116L448.869 218.718Z" fill="#FFD5C9"/>
<path d="M603.412 230.596L609.565 269.22H601.172L584.379 230.596H603.412Z" fill="#FFD5C9"/>
<path d="M628.257 117.528H623.843C618.624 117.529 613.579 119.407 609.631 122.82C605.682 126.233 603.093 130.952 602.337 136.116L594.456 189.211H285.988L278.107 136.116C277.351 130.952 274.762 126.233 270.813 122.82C266.865 119.407 261.82 117.529 256.601 117.528H252.187C249.12 117.529 246.089 118.178 243.291 119.433C240.493 120.688 237.992 122.521 235.953 124.811C233.913 127.1 232.381 129.796 231.456 132.719C230.532 135.643 230.236 138.729 230.588 141.776L239.241 216.423C239.785 221.096 242.028 225.407 245.542 228.535C249.056 231.664 253.597 233.393 258.302 233.393H622.151C626.855 233.393 631.395 231.664 634.908 228.535C638.42 225.406 640.661 221.095 641.203 216.423L649.856 141.776C650.208 138.729 649.913 135.643 648.988 132.719C648.064 129.796 646.531 127.1 644.492 124.811C642.452 122.521 639.951 120.688 637.153 119.433C634.355 118.178 631.324 117.529 628.257 117.528Z" fill="#FFE2D7"/>
<path d="M594.874 163.439C595.231 167.996 595.05 172.578 594.335 177.092C593.915 179.244 592.756 181.181 591.059 182.569C589.362 183.957 587.233 184.709 585.041 184.694H452.16C449.917 184.68 447.752 183.872 446.05 182.411C444.349 180.951 443.22 178.934 442.866 176.72C442.156 172.443 442.156 168.079 442.866 163.802C443.254 161.644 444.384 159.69 446.061 158.278C447.738 156.866 449.856 156.085 452.048 156.069L585.376 154.573C587.792 154.557 590.123 155.466 591.89 157.115C593.656 158.764 594.724 161.027 594.874 163.439Z" fill="#FFE2D7"/>
<path d="M323.59 102.026H330.709C328.551 100.847 326.044 100.475 323.636 100.976C323.547 100.45 323.293 99.9651 322.91 99.5926C322.528 99.2201 322.037 98.9788 321.508 98.9036C321.817 97.7194 321.889 96.4858 321.72 95.2737C321.551 94.0616 321.144 92.8948 320.523 91.8403V98.9593C320.042 99.0844 319.609 99.3488 319.279 99.7192C318.948 100.09 318.734 100.55 318.664 101.041C317.48 100.732 316.246 100.66 315.034 100.829C313.822 100.998 312.655 101.405 311.601 102.026H318.72C318.835 102.456 319.062 102.848 319.376 103.163C319.691 103.478 320.083 103.705 320.513 103.82V110.939C321.692 108.781 322.065 106.274 321.564 103.866C322.043 103.789 322.49 103.574 322.85 103.247C323.209 102.92 323.466 102.496 323.59 102.026Z" fill="#FFE2D7"/>
<path d="M446.917 102.026H454.017C451.859 100.847 449.352 100.475 446.945 100.976C446.856 100.45 446.601 99.9651 446.219 99.5926C445.836 99.2201 445.345 98.9788 444.817 98.9036C445.126 97.7194 445.198 96.4858 445.029 95.2737C444.86 94.0616 444.453 92.8948 443.832 91.8403V98.9593C443.351 99.0844 442.918 99.3488 442.588 99.7192C442.257 100.09 442.043 100.55 441.973 101.041C440.789 100.732 439.555 100.66 438.343 100.829C437.131 100.998 435.964 101.405 434.91 102.026H442.029C442.144 102.456 442.37 102.848 442.685 103.163C443 103.478 443.392 103.705 443.822 103.82V110.939C445.001 108.781 445.373 106.274 444.872 103.866C445.355 103.792 445.806 103.578 446.169 103.251C446.533 102.925 446.792 102.499 446.917 102.026Z" fill="#FFE2D7"/>
<path d="M570.244 102.026H577.362C575.204 100.847 572.697 100.475 570.29 100.976C570.201 100.45 569.946 99.9651 569.564 99.5926C569.181 99.2201 568.69 98.9788 568.162 98.9036C568.471 97.7194 568.543 96.4858 568.374 95.2737C568.205 94.0616 567.798 92.8948 567.177 91.8403V98.9593C566.697 99.0866 566.266 99.3517 565.935 99.7217C565.605 100.092 565.39 100.55 565.318 101.041C564.134 100.732 562.9 100.66 561.688 100.829C560.476 100.998 559.309 101.405 558.255 102.026H565.374C565.489 102.456 565.715 102.848 566.03 103.163C566.345 103.478 566.737 103.705 567.167 103.82V110.939C568.346 108.781 568.718 106.274 568.217 103.866C568.697 103.789 569.144 103.574 569.503 103.247C569.863 102.92 570.12 102.496 570.244 102.026Z" fill="#FFE2D7"/>
<path d="M373.589 129.638H380.708C378.549 128.461 376.042 128.092 373.635 128.597C373.55 128.069 373.297 127.582 372.914 127.209C372.531 126.836 372.037 126.596 371.507 126.525C372.128 124.13 371.774 121.586 370.522 119.452V126.58C370.042 126.703 369.608 126.965 369.278 127.334C368.947 127.703 368.733 128.162 368.663 128.653C366.268 128.032 363.725 128.386 361.591 129.638H368.719C368.829 130.069 369.053 130.463 369.367 130.778C369.68 131.094 370.073 131.319 370.503 131.432V138.551C371.682 136.393 372.055 133.886 371.554 131.478C372.036 131.404 372.486 131.191 372.848 130.864C373.209 130.537 373.467 130.11 373.589 129.638Z" fill="#FFE2D7"/>
<path d="M496.92 129.638H504.039C501.88 128.461 499.372 128.092 496.966 128.597C496.881 128.069 496.628 127.582 496.245 127.209C495.861 126.836 495.368 126.596 494.838 126.525C495.459 124.13 495.105 121.586 493.853 119.452V126.58C493.372 126.703 492.939 126.965 492.608 127.334C492.277 127.703 492.063 128.162 491.994 128.653C489.599 128.032 487.055 128.386 484.921 129.638H492.05C492.16 130.069 492.383 130.463 492.697 130.778C493.011 131.094 493.403 131.319 493.834 131.432V138.551C495.013 136.393 495.385 133.886 494.884 131.478C495.366 131.404 495.816 131.191 496.178 130.864C496.54 130.537 496.798 130.11 496.92 129.638Z" fill="#FFE2D7"/>
<path d="M14.4253 288.7C14.4253 288.7 24.1465 301.897 38.7376 300.512L56.7954 297.724L77.6226 299.118L97.762 321.349L108.914 302.594L102.66 288.012L141.554 278.979C141.554 278.979 150.588 283.839 159.621 283.142L172.121 283.839L182.539 293.57L223.515 292.176L246.434 282.455L291.582 294.258L323.534 293.57C323.534 293.57 352.707 295.652 352.707 285.921L279.77 268.589L222.149 238.031H110.987L86.6746 247.752L46.3957 254.007C46.3957 254.007 34.0443 276.414 54.4533 282.919L14.4253 288.7Z" fill="#FFE2D7"/>
<path d="M196.916 104.722L185.206 116.227L196.136 144.917L215.457 140.233L196.916 104.722Z" fill="black"/>
<path d="M217.214 107.454L195.355 108.235L198.078 127.752C196.071 128.421 194.217 129.483 192.623 130.874L199.259 136.255L199.649 139.043L205.894 154.843C208.452 156.168 211.285 156.876 214.166 156.91C217.047 156.944 219.895 156.303 222.484 155.038L238.683 132.203L217.214 107.454Z" fill="#FFB895"/>
<path d="M248.118 211.404C248.118 211.404 237.97 211.924 233.546 218.17C229.122 224.415 215.33 228.579 215.33 228.579L184.233 231.962L208.044 273.849C208.044 273.849 232.765 284.518 248.936 271.246L273.1 247.566C273.1 247.566 285.321 235.865 282.979 221.543C280.637 207.222 254.884 193.96 254.884 193.96L248.118 211.404Z" fill="#091727"/>
<path d="M210.126 243.923L200.497 252.51L211.166 265.261C211.166 265.261 234.847 279.313 249.159 272.027C249.419 271.767 210.126 243.923 210.126 243.923Z" fill="#02080F"/>
<path d="M247.854 213.486L235.363 219.471L275.698 263.7L247.854 213.486Z" fill="#02080F"/>
<path d="M213.543 131.971L218.385 108.737L217.214 107.389L195.355 108.17L198.078 127.686C196.071 128.356 194.217 129.418 192.623 130.809L199.259 136.19L199.649 138.978L204.073 150.131L211.396 137.473C212.399 135.764 213.123 133.907 213.543 131.971Z" fill="#DD8E69"/>
<path d="M190.478 123.839C190.478 123.839 204.335 137.696 207.848 146.478L209.41 151.553L217.997 152.724L229.512 124.843L242.356 125.363C246.014 125.508 249.607 126.379 252.925 127.925C256.244 129.471 259.222 131.661 261.687 134.369L297.886 174.062C300.012 176.398 301.143 179.47 301.041 182.626C300.939 185.782 299.61 188.775 297.337 190.967C295.134 193.093 292.209 194.308 289.148 194.368C286.087 194.429 283.117 193.33 280.832 191.293L258.796 171.655L263.443 217.52C263.443 217.52 251.148 215.177 243.536 217.324C235.925 219.471 232.607 230.791 217.579 231.376C209.489 231.621 201.421 232.337 193.415 233.523L166.677 166.19L167.263 142.956L190.478 123.839Z" fill="#E95E2B"/>
<path d="M185.013 141.404C186.896 144.357 187.593 147.912 186.965 151.357C186.183 155.229 185.597 159.137 185.208 163.067L192.708 167.538C193.829 168.183 194.784 169.08 195.496 170.159L202.625 181.023L170.561 186.488L169.632 150.558L185.013 141.404Z" fill="#DD4023"/>
<path d="M221.898 176.144C221.898 176.144 229.705 185.122 241.22 181.023C241.025 181.023 227.753 188.439 221.898 176.144Z" fill="#DD4023"/>
<path d="M192.235 176.144C192.235 176.144 200.041 185.122 211.556 181.023C211.361 181.023 198.09 188.439 192.235 176.144Z" fill="#DD4023"/>
<path d="M193.402 83.0579L190.697 108.281C190.555 109.651 190.813 111.033 191.441 112.259L197.946 123.969C198.562 125.078 199.424 126.03 200.467 126.752C201.51 127.474 202.705 127.946 203.959 128.132L205.354 128.346C207.293 128.625 209.269 128.207 210.93 127.166L221.432 120.567C222.479 119.65 223.232 118.444 223.597 117.101L230.261 92.6211C230.261 92.6211 227.138 78.7642 213.476 74.2753C213.504 74.2753 199.062 70.9574 193.402 83.0579Z" fill="#FFB895"/>
<path d="M223.302 93.6528C223.302 93.6528 221.62 96.2922 221.982 102.891C222.345 109.489 218.627 112.724 219.343 115.121C220.058 117.519 217.781 122.435 217.781 122.435L224.863 117.789C224.863 117.789 228.581 98.3369 223.302 93.6528Z" fill="#DD8E69"/>
<path d="M224.015 105.53C222.636 105.528 221.288 105.936 220.141 106.702C218.994 107.467 218.101 108.556 217.574 109.83C217.046 111.104 216.909 112.505 217.18 113.857C217.451 115.209 218.116 116.45 219.093 117.423C220.07 118.396 221.314 119.057 222.667 119.322C224.02 119.587 225.421 119.445 226.693 118.913C227.965 118.38 229.05 117.482 229.811 116.332C230.572 115.183 230.974 113.833 230.967 112.454C230.959 110.615 230.224 108.854 228.921 107.557C227.618 106.259 225.854 105.53 224.015 105.53ZM224.015 118.653C222.794 118.653 221.601 118.291 220.586 117.613C219.572 116.935 218.781 115.971 218.314 114.844C217.847 113.716 217.724 112.475 217.962 111.278C218.201 110.081 218.788 108.981 219.651 108.118C220.514 107.255 221.614 106.668 222.811 106.43C224.008 106.191 225.249 106.314 226.376 106.781C227.504 107.248 228.468 108.039 229.146 109.054C229.824 110.068 230.186 111.261 230.186 112.482C230.187 113.293 230.028 114.096 229.719 114.845C229.409 115.594 228.954 116.275 228.381 116.848C227.808 117.422 227.127 117.876 226.378 118.186C225.629 118.495 224.826 118.654 224.015 118.653Z" fill="white"/>
<path d="M204.015 81.0227C202.242 82.1425 200.806 83.7229 199.861 85.5952C199.861 85.5952 199.08 88.5227 196.738 88.7179C194.396 88.913 196.934 91.6454 194.982 94.7681C193.03 97.8908 196.348 101.599 194.396 103.941C192.445 106.283 191.274 109.406 192.445 111.748C193.616 114.09 195.762 118.374 194.201 121.302C192.64 124.229 195.762 127.352 193.42 129.108C191.078 130.865 192.054 134.963 189.517 135.354C186.98 135.744 186.59 138.672 183.857 137.11L173.495 123.606C173.495 123.606 170.558 114.861 173.346 110.595C176.134 106.329 172.417 103.16 174.517 97.519C176.617 91.8777 178.42 94.2012 179.982 87.3703C181.543 80.5394 185.642 82.7234 186.422 78.7829C187.203 74.8424 193.448 74.8795 195.79 70.4185C198.132 65.9576 203.012 70.4186 204.768 67.2959C206.525 64.1732 210.428 67.6862 210.428 67.6862C210.428 67.6862 216.869 64.1732 221.357 68.6156C225.846 73.058 229.359 71.7383 230.725 75.6416C232.092 79.545 235.605 78.7643 235.214 83.6435C234.824 88.5227 237.751 86.571 238.142 91.2551C238.532 95.9391 241.069 93.5971 242.789 100.818C244.508 108.04 247.436 104.917 248.253 111.553C249.071 118.188 252.9 115.27 251.971 119.155C251.041 123.04 252.751 125.595 258.216 128.523C263.681 131.45 260.168 133.012 260.168 133.012C260.168 133.012 254.508 128.718 252.361 130.084C250.214 131.45 251.58 133.207 249.043 135.159C246.506 137.11 252.361 141.014 248.263 143.523C244.164 146.032 248.848 150.159 242.017 149.378C235.186 148.597 238.699 145.66 227.575 143.328C216.45 140.995 223.857 138.681 220.549 134.155C217.24 129.629 221.478 129.861 220.354 124.787C219.229 119.712 222.696 124.201 222.501 116.004C222.305 107.807 225.038 112.287 224.062 103.523C223.086 94.7588 223.802 95.1584 223.476 88.8852C223.272 84.9725 220.131 82.3796 217.212 80.7717C215.19 79.6327 212.9 79.0554 210.58 79.0995C208.259 79.1436 205.993 79.8076 204.015 81.0227Z" fill="black"/>
<path d="M212.919 163.848C212.724 163.263 209.406 151.553 209.406 151.553C209.406 151.553 216.432 151.357 217.994 152.724L212.919 163.848Z" fill="white"/>
<path d="M139.352 238.393C139.352 238.393 156.907 225.131 161.006 222.984L195.16 229.23L199.454 263.765L186.183 275.28C186.183 275.28 167.372 282.826 153.98 276.061C136.619 267.278 139.352 238.393 139.352 238.393Z" fill="#03355D"/>
<path d="M128.032 215.373C126.666 210.493 116.126 210.493 116.126 210.493L65.3828 216.348V181.757L62.8456 181.228L43.7842 222.575C41.094 228.348 40.0549 234.752 40.7823 241.079C43.8957 267.204 73.775 265.01 73.775 265.01L168.227 253.561L169.528 228.328L153.831 222.612L128.032 215.373Z" fill="#052948"/>
<path d="M94.509 216.934L100.931 230.242C102.042 232.545 103.735 234.518 105.843 235.965C107.951 237.413 110.4 238.285 112.948 238.495L126.163 239.601L100.987 251.107L94.509 216.934Z" fill="#081D32"/>
<path d="M106.562 113.114L67.3335 117.761C67.3335 117.761 57.1848 118.346 52.6959 122.64C49.5732 125.632 24.8148 145.512 10.0657 157.343C7.13279 159.689 5.24719 163.1 4.82059 166.831C4.39399 170.563 5.46101 174.311 7.78869 177.259C9.98492 180.04 13.1398 181.901 16.636 182.479C20.1323 183.056 23.7182 182.309 26.6921 180.382L62.4543 157.147L64.6105 219.081L115.94 212.445C115.94 212.445 126.479 209.322 131.163 219.276L152.622 225.716L171.944 152.138L168.226 131.45L123.542 114.313L106.562 113.114Z" fill="#E95E2B"/>
<path d="M97.7146 170.289C97.7146 170.289 120.354 203.337 144.815 209.583C144.815 209.583 124.257 201.776 97.7146 170.289Z" fill="#DD4023"/>
<path d="M90.9478 185.642C90.9478 185.642 101.877 201.776 120.873 200.512C120.873 200.475 107.082 200.744 90.9478 185.642Z" fill="#DD4023"/>
<path d="M209.212 184.146L199.063 172.24C199.063 172.24 192.232 168.727 186.182 167.947C180.132 167.166 159.23 166.581 159.23 166.581L144.407 169.508C144.407 169.508 136.405 170.289 133.087 176.144C129.769 181.999 124.5 202.687 124.5 202.687C124.5 202.687 126.841 206.59 134.258 206.785L137.771 207.566C137.771 207.566 138.347 214.583 139.174 221.376L163.719 229.62L160.829 239.044L170.94 242.101C170.94 242.101 198.459 230.019 199.044 229.62C199.63 229.22 195.922 193.709 195.922 193.709L209.212 184.146Z" fill="#FFF6F3"/>
<path d="M186.005 185.159L191.999 201.228C191.999 201.228 191.284 189.713 186.005 185.159Z" fill="#FFD5C9"/>
<path d="M146.917 185.391L150.988 201.702L160.82 214.415L163.023 209.973C163.023 209.973 162.502 205.54 159.863 205.326L153.357 199.09L146.917 185.391Z" fill="#FFD5C9"/>
<path d="M206.675 183.365L220.095 205.874C221.181 207.729 221.497 209.935 220.976 212.019C220.455 214.104 219.138 215.902 217.307 217.027C215.492 218.145 213.313 218.514 211.232 218.054C209.15 217.594 207.329 216.343 206.154 214.564L191.795 192.882L206.675 183.365Z" fill="#FFB895"/>
<path d="M206.675 183.365L191.843 192.928L192.902 193.727L209.092 187.789L206.675 183.365Z" fill="#DD8E69"/>
<path d="M163.021 209.973L151.125 225.391L172.193 233.588L163.021 209.973Z" fill="#03355D"/>
<path d="M181.89 260.057V265.326C181.89 265.326 180.133 270.401 179.743 272.548C179.353 274.694 178.767 282.696 178.767 282.696L179.743 288.942L178.767 290.41C178.406 290.963 178.214 291.609 178.214 292.269C178.214 292.929 178.406 293.575 178.767 294.128C179.255 294.916 179.918 295.582 180.705 296.073C181.491 296.565 182.38 296.869 183.302 296.962H187.206L188.962 296.572L199.892 296.767C199.892 296.767 202.819 297.548 201.453 293.254L197.55 275.494L195.793 259.1L181.89 260.057Z" fill="#FFB895"/>
<path d="M198.365 192.882C200.105 193.154 201.773 193.775 203.269 194.706C204.764 195.637 206.057 196.86 207.07 198.301C208.083 199.743 208.796 201.373 209.165 203.096C209.534 204.819 209.553 206.598 209.22 208.328L198.597 263.282L178.773 262.854L183.272 204.834C183.41 203.031 183.92 201.276 184.769 199.68C185.618 198.084 186.788 196.681 188.206 195.559C189.623 194.436 191.257 193.619 193.005 193.158C194.754 192.698 196.578 192.604 198.365 192.882Z" fill="#052948"/>
<path d="M190.328 194.239C188.424 195.219 186.79 196.653 185.57 198.413C184.35 200.172 183.58 202.205 183.329 204.332L196.341 211.971C196.341 211.971 195.736 200.233 190.328 194.239Z" fill="#03355D"/>
<path d="M297.291 123.188L306.631 109.731C307.078 109.09 307.347 108.343 307.412 107.565L307.96 101.06L307.18 100.131C307.18 100.131 308.871 99.0896 307.7 96.8777L307.05 96.097C307.05 96.097 308.221 94.5357 306.789 93.4948L305.098 92.8442L297.031 94.2755L297.96 97.2588C298.195 98.0141 298.125 98.8313 297.765 99.5357L296.511 101.98C296.204 102.59 295.721 103.093 295.124 103.425C294.527 103.756 293.845 103.9 293.165 103.839H292.598C292.598 103.839 295.851 99.545 294.55 96.2922L290.646 93.8201L288.695 99.2848L284.661 103.932C284.661 103.932 283.23 106.144 283.62 108.095L284.921 121.106L297.291 123.188Z" fill="#FFB895"/>
<path d="M292.212 103.941C292.035 103.597 297.286 108.755 294.424 113.179C294.424 113.179 295.335 109.796 292.212 103.941Z" fill="#DD8E69"/>
<path d="M28.3005 117.789L42.5478 91.4502L40.8192 78.6342C40.7643 78.1584 40.8472 77.6769 41.0581 77.2468C41.269 76.8168 41.599 76.4564 42.0088 76.2085L42.5478 75.8833L51.1352 65.9297L55.0386 64.1267L60.6984 64.517L64.797 77.7885L64.1929 89.2197C64.1391 90.2207 63.8605 91.1966 63.3778 92.0751C62.8952 92.9536 62.2208 93.712 61.4047 94.2941L56.6092 97.7049L43.533 125.214L28.3005 117.789Z" fill="#FFB895"/>
<path d="M45.9314 72.1936L56.8608 86.5059L180.718 23.5317L296.332 106.125L300.049 103.049C301.055 102.214 301.843 101.148 302.348 99.9423C302.853 98.7368 303.059 97.4272 302.949 96.1249C302.726 93.6063 302.141 90.6788 300.672 89.2197C297.81 86.3572 181.954 0 181.954 0C181.954 0 53.2177 66.9891 45.9314 72.1936Z" fill="#052948"/>
<path d="M299.211 96.7753C299.211 96.7753 289.137 82.7139 280.503 75.186L294.081 85.0838L296.776 87.147C298.829 90.2152 300.219 93.6782 300.856 97.3144L299.211 96.7753Z" fill="#091727"/>
<path d="M180.716 23.5318L182.286 6.47778L144.154 41.7288L180.716 23.5318Z" fill="#091727"/>
<path d="M58.6812 210.884C58.6812 210.884 59.7221 255.113 65.9675 264.481L76.6366 266.562L58.6812 210.884Z" fill="#081D32"/>
<path d="M96.415 254.332C96.415 254.332 116.973 238.458 144.557 232.482L96.415 254.332Z" fill="#081D32"/>
<path d="M59.3326 272.938C59.3326 272.938 54.6857 273.913 52.3065 272.547C50.773 271.618 47.9013 269.676 46.0983 268.412C44.9991 267.639 43.6637 267.278 42.3251 267.389C39.3975 267.64 34.2581 268.43 31.4235 270.986C27.325 274.703 25.5778 277.036 21.4793 277.622C17.3807 278.207 8.40299 278.207 4.49963 282.501C2.97021 284.114 1.60649 285.876 0.428977 287.761C0.177942 288.178 0.0323229 288.65 0.00479208 289.136C-0.0227387 289.621 0.0686649 290.107 0.270999 290.549C0.547914 291.262 1.06006 291.859 1.72263 292.241C2.3852 292.623 3.15841 292.767 3.91412 292.65C3.91412 292.65 8.79331 296.943 14.6483 296.943C15.2657 297.453 16.0145 297.779 16.8085 297.882C17.6026 297.986 18.4097 297.863 19.1372 297.529L34.351 294.992C34.351 294.992 51.5258 294.406 56.6002 293.235C61.6746 292.064 69.2582 290.112 69.2582 290.112L59.3326 272.938Z" fill="#FFB895"/>
<path d="M55.0396 273.523C54.007 276.537 53.8047 279.773 54.4541 282.892C55.3887 286.252 56.6332 289.519 58.1716 292.65L65.1976 291.089L55.0396 273.523Z" fill="#DD8E69"/>
<path d="M193.208 265.912L198.719 273.57C200.323 275.789 200.991 278.549 200.577 281.256L199.276 289.722C199.276 289.722 199.174 290.271 199.109 291.033C199.033 292.007 199.307 292.976 199.881 293.766C200.455 294.556 201.291 295.116 202.241 295.345C204.481 295.875 207.464 296.423 208.839 295.968C208.839 295.968 211.962 296.944 214.304 297.92C216.646 298.895 224.453 302.018 230.308 300.066L237.473 295.54C238.284 295.486 239.047 295.139 239.621 294.565C240.195 293.991 240.542 293.228 240.596 292.418C240.791 289.49 236.498 288.7 236.498 288.7H232.78L217.91 275.429L206.758 257.278L193.208 265.912Z" fill="#FFB895"/>
<path d="M193.6 267.668L198.284 271.962L209.408 261.228L205.505 254.397L193.6 267.668Z" fill="#DD8E69"/>
<path d="M166.434 202.938C167.982 202.096 169.684 201.574 171.438 201.404C173.192 201.234 174.962 201.42 176.643 201.949C178.324 202.478 179.881 203.34 181.222 204.484C182.562 205.628 183.658 207.03 184.445 208.607L209.408 258.691L193.404 270.447L161.704 221.646C160.711 220.128 160.044 218.421 159.745 216.632C159.446 214.844 159.521 213.012 159.965 211.254C160.41 209.496 161.214 207.849 162.328 206.418C163.441 204.986 164.839 203.801 166.434 202.938Z" fill="#03355D"/>
<path d="M193.21 237.659L190.803 239.917C190.061 240.621 189.434 241.436 188.944 242.334L186.677 246.395C186.469 246.772 186.128 247.059 185.721 247.198C185.314 247.337 184.869 247.319 184.474 247.148C184.342 247.082 184.215 247.007 184.093 246.925C183.81 247.448 183.412 247.901 182.929 248.248C182.446 248.596 181.891 248.83 181.305 248.932C181.081 248.967 180.853 248.947 180.638 248.876C180.424 248.804 180.229 248.683 180.071 248.521C179.913 248.359 179.796 248.162 179.729 247.946C179.662 247.73 179.648 247.501 179.688 247.278C179.874 246.293 180.115 245.215 180.115 245.215C180.033 245.561 179.869 245.884 179.638 246.155C179.407 246.426 179.115 246.639 178.786 246.776C178.595 246.85 178.387 246.869 178.186 246.829C177.985 246.789 177.8 246.693 177.652 246.551C177.503 246.41 177.399 246.229 177.349 246.03C177.3 245.832 177.309 245.623 177.374 245.429L177.717 244.406C177.428 244.701 177.082 244.935 176.701 245.095C176.319 245.255 175.91 245.336 175.496 245.336C175.289 245.346 175.083 245.3 174.9 245.203C174.716 245.107 174.562 244.963 174.453 244.786C174.344 244.61 174.284 244.407 174.279 244.2C174.275 243.993 174.326 243.788 174.428 243.607L181.258 231.674L193.21 237.659Z" fill="#FFB895"/>
<path d="M182.67 235.596L178.767 236.116L177.336 238.728L187.094 245.614L182.67 235.596Z" fill="#DD8E69"/>
<path d="M151.889 228.728L55.0389 271.767C55.0389 271.767 54.5185 290.503 64.6672 295.187L164.984 263.068C167.353 262.31 169.544 261.08 171.424 259.451C173.304 257.822 174.834 255.829 175.922 253.592C177.01 251.355 177.632 248.92 177.752 246.436C177.872 243.951 177.487 241.468 176.619 239.136C175.745 236.779 174.397 234.625 172.658 232.808C170.919 230.992 168.826 229.552 166.508 228.576C164.191 227.601 161.697 227.111 159.183 227.137C156.668 227.163 154.186 227.704 151.889 228.728Z" fill="#052948"/>
<path d="M67.7896 266.302L70.652 281.172C70.652 281.172 72.5108 290.02 81.3212 289.239L108.905 280.875L100.057 252.51L67.7896 266.302Z" fill="#081D32"/>
<path d="M103.179 90.1489L98.7554 116.171L92.4915 118.03C92.4915 118.03 90.484 128.978 109.22 133.067C113.248 133.972 117.43 133.938 121.441 132.965C126.637 131.683 132.259 128.634 129.703 121.413L133.607 100.344L103.179 90.1489Z" fill="#FFB895"/>
<path d="M114.558 125.8L121.797 132.835C126.9 131.506 132.225 128.439 129.725 121.367L133.628 100.298L106.435 91.2363L107.364 109.972C107.672 115.969 110.243 121.625 114.558 125.8Z" fill="#DD8E69"/>
<path d="M132.063 68.03H108.903C108.903 68.03 103.178 70.372 101.617 76.097C100.923 79.4458 100.476 82.8409 100.278 86.255C99.0122 86.3306 97.8172 86.866 96.918 87.7606C96.0187 88.6551 95.4771 89.8473 95.395 91.1131C95.3128 92.3788 95.6957 93.631 96.4717 94.6343C97.2477 95.6377 98.3634 96.3231 99.6091 96.5617C99.5534 97.4911 99.5162 98.4205 99.4791 99.2012C99.3326 102.262 100.127 105.295 101.756 107.891L106.403 115.261C107.344 116.775 108.611 118.061 110.111 119.025C111.61 119.989 113.306 120.608 115.074 120.837L117.537 121.144C119.454 121.388 121.402 121.167 123.215 120.499C125.029 119.831 126.655 118.735 127.955 117.305L131.384 113.523C133.193 111.536 134.435 109.1 134.981 106.469L135.697 102.965C136.586 102.691 137.386 102.184 138.012 101.496C138.639 100.807 139.07 99.9639 139.26 99.0528C139.449 98.1417 139.391 97.1963 139.092 96.3152C138.792 95.4341 138.261 94.6495 137.555 94.0431L139.637 83.9502C139.637 83.9502 142.212 73.2345 132.063 68.03Z" fill="#FFB895"/>
<path d="M105.876 76.4315C105.817 75.4708 106.126 74.5236 106.74 73.7828C107.619 72.6617 108.885 71.9093 110.29 71.6732C113.237 71.3293 115.151 72.4538 116.796 71.3293C118.441 70.2048 122.001 72.5375 123.999 71.3293C125.997 70.1211 128.069 72.8813 130.411 71.7568C132.753 70.6323 132.41 73.6155 135.058 73.3181C137.707 73.0207 136.917 75.3999 138.701 76.004C140.486 76.6081 138.961 78.0022 139.138 79.7215C139.175 81.5186 139.06 83.3156 138.794 85.0933L138.032 90.0561C138.032 90.0561 139.501 89.7959 140.021 87.6305C140.541 85.465 141.322 84.5914 140.95 82.426C140.579 80.2606 142.168 78.0022 141.127 75.9204C140.086 73.8386 140.606 72.11 138.004 70.1118C135.402 68.1137 136.703 65.688 134.705 65.3441C132.707 65.0003 130.541 62.3887 128.72 62.4817C126.898 62.5746 123.515 60.1397 121.434 61.3478C119.352 62.556 115.105 60.8274 112.846 62.1285C110.588 63.4296 104.259 64.043 102.958 67.7047C101.657 71.3665 99.9279 70.5672 99.4075 73.0765C98.887 75.5858 97.2327 76.5431 97.7532 78.281C98.2736 80.0189 96.9725 81.2271 97.7532 82.9279C98.5338 84.6286 97.2327 86.0505 98.1063 86.8312C98.6008 86.803 99.0918 86.9291 99.5114 87.1922C99.931 87.4553 100.258 87.8423 100.448 88.2996L100.616 90.2978C101.524 89.1375 101.986 87.6897 101.917 86.2178C101.749 83.8758 103.478 82.3145 103.776 80.4929C104.017 78.8386 105.969 78.7085 105.876 76.4315Z" fill="#081D32"/>
<path d="M27.9105 115.065L46.0611 122.668L25.5778 179.657L5.67065 163.848L27.9105 115.065Z" fill="#E95E2B"/>
<path d="M48.988 76.2085L56.8598 86.4873C56.8598 86.4873 58.8115 88.3461 57.4453 91.887C57.4453 91.887 57.9657 88.439 56.5159 86.6825L48.988 76.2085Z" fill="#DD8E69"/>
<path d="M53.1521 81.5617L57.2692 81.255C57.6089 81.2295 57.9333 81.1037 58.2014 80.8935C58.4694 80.6834 58.669 80.3984 58.7748 80.0747L60.4384 74.8609C60.8758 74.0006 61.5566 73.2881 62.3962 72.8121C63.2357 72.3362 64.1968 72.1178 65.1596 72.1843C65.5716 72.2074 65.9642 72.3671 66.2755 72.638C66.5868 72.9089 66.7991 73.2757 66.8789 73.6806C66.9654 74.0668 66.9263 74.4705 66.7674 74.833L65.3176 78.1509C64.9263 79.0311 64.7025 79.9767 64.6577 80.939L64.4068 85.7996L60.3083 92.4353L57.4458 91.9149C57.6513 89.4899 56.993 87.0704 55.587 85.084C55.4291 85.0096 53.1521 81.5617 53.1521 81.5617Z" fill="#FFB895"/>
<path d="M120.373 95.7253C120.146 95.726 119.921 95.7605 119.704 95.8276C120.153 95.969 120.545 96.2497 120.823 96.6291C121.101 97.0085 121.251 97.4668 121.251 97.9372C121.251 98.4077 121.101 98.866 120.823 99.2454C120.545 99.6247 120.153 99.9055 119.704 100.047C119.921 100.114 120.146 100.148 120.373 100.149C120.96 100.149 121.522 99.9161 121.937 99.5013C122.352 99.0865 122.585 98.5239 122.585 97.9372C122.585 97.3506 122.352 96.788 121.937 96.3732C121.522 95.9584 120.96 95.7253 120.373 95.7253Z" fill="#DD8E69"/>
<path d="M127.948 117.259L131.377 113.476C133.186 111.489 134.428 109.053 134.974 106.422L135.69 102.919L136.052 102.798L137.53 93.9967L138.543 89.071L137.79 90.2327C137.105 91.8532 136.582 93.5373 136.229 95.2606C136.052 96.9149 134.491 99.164 134.23 100.381C133.97 101.599 132.669 102.9 132.232 103.764C132.232 103.764 130.504 104.461 130.067 105.623C129.539 104.809 128.861 104.103 128.069 103.541C127.028 102.937 126.08 101.376 124.602 100.679C123.124 99.9818 119.137 98.6807 116.879 100.075C114.621 101.469 112.632 101.004 112.232 101.803C111.833 102.603 109.444 103.662 109.444 103.662C108.295 102.321 106.984 101.129 105.541 100.112C103.979 99.2383 103.803 96.032 102.595 94.8145C101.386 93.597 102.074 90.4836 102.074 89.4427C101.949 88.072 101.744 86.7097 101.461 85.3628L100.857 87.4539L99.9924 95.2606L99.6299 96.5617C99.5742 97.4911 99.537 98.4205 99.4998 99.2011C99.3533 102.262 100.148 105.295 101.777 107.891L106.424 115.261C107.365 116.775 108.632 118.061 110.131 119.025C111.631 119.989 113.326 120.608 115.095 120.837L117.558 121.144C119.474 121.378 121.419 121.147 123.227 120.471C125.036 119.795 126.655 118.693 127.948 117.259Z" fill="#081D32"/>
<path d="M43.3287 131.776L29.2952 173.672C29.2952 173.672 40.7264 149.731 43.3287 131.776Z" fill="#DD4023"/>
<path d="M62.4553 157.213L62.3252 135.939L53.998 162.742L62.4553 157.213Z" fill="#DD4023"/>
<path d="M64.6664 134.638C64.6664 134.638 65.7074 146.348 64.4062 148.951L64.6664 134.638Z" fill="#DD4023"/>
<path d="M69.6198 176.227C67.2287 176.744 64.9631 177.728 62.9529 179.122C60.9427 180.516 59.2275 182.293 57.9056 184.351C56.5837 186.41 55.6812 188.709 55.2497 191.117C54.8182 193.525 54.8663 195.994 55.3911 198.383L73.2536 279.834C73.2536 279.834 75.921 288.932 90.0567 288.068C93.7699 287.872 97.302 286.402 100.057 283.904C102.984 281.2 105.521 276.841 103.96 270.205L91.8783 191.264C91.4563 188.785 90.5356 186.417 89.1719 184.304C87.8082 182.191 86.03 180.377 83.9447 178.971C81.8595 177.565 79.5106 176.597 77.0404 176.126C74.5701 175.654 72.0299 175.689 69.5734 176.227H69.6198Z" fill="#052948"/>
<path d="M110.465 221.813C110.465 221.813 121.134 215.958 131.152 219.276C131.152 219.276 122.955 218.69 110.465 221.813Z" fill="#081D32"/>
<path d="M74.2952 280.875C74.2952 280.875 77.6781 289.722 93.2915 287.12C93.2915 287.12 106.043 283.737 104.444 271.506C104.444 271.506 101.061 266.302 92.4737 271.246C83.8863 276.19 80.8008 270.205 74.2952 280.875Z" fill="#081D32"/>
<path d="M78.7207 279.053L88.6092 303.217C88.6092 303.217 91.2115 310.243 92.5126 311.804C93.3397 312.799 93.9531 316.451 95.5051 319.602C96.2078 321.054 97.3741 322.23 98.8197 322.945C100.265 323.661 101.908 323.874 103.488 323.552C106.342 322.975 109.91 321.693 111.769 318.83C115.152 313.626 124.78 310.764 130.766 307.12C136.751 303.477 135.71 299.314 135.71 299.314C135.71 299.314 133.108 294.667 130.013 296.033C129.48 296.261 128.906 296.378 128.326 296.378C127.746 296.378 127.172 296.261 126.639 296.033C122.717 294.379 114.148 291.135 110.208 292.511L100.319 270.726C100.319 270.726 97.1966 268.124 91.2115 272.585C88.9912 273.638 86.621 274.34 84.1854 274.667C79.4828 275.41 78.7207 279.053 78.7207 279.053Z" fill="#FFB895"/>
<path d="M8.20727 289.527C8.20727 289.527 6.25559 292.064 3.91357 292.65C3.91357 292.65 7.81693 293.626 8.20727 289.527Z" fill="#DD8E69"/>
<path d="M151.971 150.317C151.971 150.317 152.167 152.854 148.654 153.83C145.141 154.806 147.287 155.001 144.007 157.343C140.726 159.685 136.572 158.904 137.371 162.417C138.17 165.93 134.639 167.491 139.908 171.004C145.178 174.517 145.958 172.956 151.061 171.785C151.061 171.785 157.306 171.2 158.282 166.125C158.889 163.006 159.737 159.94 160.819 156.952L151.971 150.317Z" fill="#091727"/>
<path d="M154.762 151.358L157.299 168.728C157.299 168.728 154.177 171.655 157.495 175.558C160.812 179.462 171.156 178.681 171.156 178.681C171.156 178.681 181.11 178.096 181.5 171.85C181.642 170.925 181.443 169.98 180.94 169.19C180.438 168.401 179.666 167.82 178.768 167.557L177.838 146.674L154.762 151.358Z" fill="#FFB895"/>
<path d="M172.597 162.817L173.87 147.473L154.762 151.357L157.299 168.727C157.299 168.727 154.177 171.655 157.495 175.558C158.87 177.175 161.444 177.984 164 178.346L166.286 176.134C169.925 172.6 172.165 167.871 172.597 162.817Z" fill="#DD8E69"/>
<path d="M163.542 118.374C163.542 118.374 157.297 118.179 155.736 120.521C154.174 122.863 151.089 122.082 149.695 125.01C148.301 127.937 145.977 127.937 146.182 130.865C146.386 133.792 144.23 137.305 146.377 141.794C148.524 146.283 146.572 148.43 151.832 151.552L184.621 147.649C184.621 147.649 188.338 143.16 186.572 139.452C184.806 135.744 185.987 131.645 183.84 128.913C181.693 126.181 182.083 122.863 178.375 122.082C174.667 121.301 172.52 117.008 169.593 118.365C166.665 119.722 165.689 116.813 163.542 118.374Z" fill="#091727"/>
<path d="M185.598 147.259C185.598 146.317 185.301 145.4 184.751 144.636C184.2 143.872 183.424 143.301 182.531 143.002V140.567C182.504 137.388 181.264 134.34 179.064 132.045C177.705 130.63 176.183 129.383 174.529 128.328C171.629 126.429 168.131 125.665 164.704 126.179C161.276 126.693 158.157 128.45 155.941 131.116C154.576 132.762 153.49 134.62 152.726 136.618C151.893 138.805 151.7 141.183 152.168 143.476L152.503 145.121C151.507 145.476 150.668 146.171 150.134 147.083C149.601 147.996 149.406 149.067 149.585 150.109C149.764 151.151 150.304 152.097 151.112 152.779C151.92 153.461 152.942 153.836 153.999 153.839H154.259L154.566 155.326C155.216 158.551 156.884 161.483 159.324 163.69L162.363 166.478C163.469 167.479 164.786 168.219 166.216 168.642C167.646 169.065 169.153 169.161 170.625 168.923L172.373 168.644C173.775 168.419 175.113 167.896 176.296 167.111C177.479 166.325 178.48 165.295 179.231 164.09L180.31 162.37C181.863 159.883 182.676 157.004 182.652 154.071V151.478C183.515 151.161 184.261 150.586 184.788 149.831C185.314 149.077 185.597 148.179 185.598 147.259Z" fill="#FFB895"/>
<path d="M152.481 145.177C152.481 145.177 153.327 137.603 155.213 135.986C157.1 134.369 156.923 130.949 159.619 130.595C162.314 130.242 164.656 129.87 166.998 128.43C169.34 126.989 173.922 131.134 175.808 130.289C177.695 129.443 182.147 136.041 182.528 142.965C182.528 142.965 188.225 129.294 168.076 121.924C168.076 121.961 140.734 132.389 152.481 145.177Z" fill="#091727"/>
<path d="M152.481 145.177C152.481 145.177 150.808 130.595 164.749 127.445C178.689 124.294 183.336 139.136 182.528 143.002C182.528 143.002 184.879 130.437 171.952 126.274C169.188 125.332 166.225 125.129 163.359 125.687C160.493 126.244 157.822 127.543 155.613 129.452C152.063 132.612 149.312 137.677 152.481 145.177Z" fill="white"/>
<path d="M129.981 200.54L143.086 219.257C144.354 221.07 146.258 222.339 148.418 222.812C150.579 223.286 152.839 222.929 154.749 221.813C155.782 221.21 156.68 220.402 157.391 219.441C158.101 218.479 158.609 217.382 158.882 216.218C159.155 215.054 159.188 213.846 158.979 212.668C158.77 211.491 158.324 210.368 157.667 209.369L149.303 196.636C149.303 196.636 136.617 190.977 129.981 200.54Z" fill="#FFB895"/>
<path d="M160.289 210.233L186.312 223.244L190.215 220.122L195.81 230.14L185.271 237.287L159.899 215.438L160.289 210.233Z" fill="#052948"/>
<path d="M210.209 199.954L180.915 232.148L190.283 239.954L218.778 215.958L210.209 199.954Z" fill="#FFB895"/>
<path d="M310.106 271.962L318.471 271.181L323.062 269.267C324.646 268.608 326.395 268.452 328.071 268.821L331.789 269.62C331.789 269.62 339.79 272.938 343.87 271.377C347.95 269.815 351.482 273.523 351.482 273.523L354.14 279.481C354.523 280.308 355.152 280.997 355.943 281.451C356.775 281.856 357.456 282.519 357.882 283.341C358.309 284.163 358.46 285.1 358.313 286.014C358.313 286.014 357.532 289.527 351.872 288.161C351.872 288.161 330.013 291.479 318.499 286.014C317.328 286.014 303.861 287.38 303.861 287.38L310.106 271.962Z" fill="#FFB895"/>
<path d="M204.751 235.949C203.052 239.415 202.67 243.382 203.677 247.109C204.684 250.836 207.011 254.07 210.225 256.209C227.13 267.436 262.056 286.061 308.478 286.6L313.682 270.447L225.894 228.625C222.115 226.819 217.776 226.575 213.819 227.946C209.861 229.317 206.603 232.192 204.751 235.949Z" fill="#091727"/>
<path d="M305.878 286.079L302.235 264.704L250.487 243.663L258.489 250.484C261.298 252.871 263.823 255.571 266.017 258.533L273.759 268.969C274.372 269.793 274.898 270.677 275.33 271.609L278.843 279.313L278.062 283.217C278.062 283.217 301.714 287.38 305.878 286.079Z" fill="#02080F"/>
<path d="M296.247 259.471L302.688 276.256L306.6 284.741C306.873 285.319 307.028 285.945 307.055 286.584C307.082 287.222 306.981 287.859 306.758 288.458C306.238 289.871 305.355 291.609 304.054 292.259C301.712 293.43 301.907 300.847 297.418 302.018C292.929 303.189 283.756 301.823 283.756 301.823C282.83 302.633 281.631 303.064 280.4 303.028C279.169 302.991 277.998 302.491 277.12 301.627L276.349 298.533C276.232 298.068 276.259 297.579 276.425 297.13C276.59 296.68 276.888 296.292 277.278 296.014L279.044 294.797L283.143 275.28L281.386 265.912L296.247 259.471Z" fill="#FFB895"/>
<path d="M280.438 266.302C280.828 266.888 282.39 271.377 282.39 271.377L297.259 262.204L280.438 266.302Z" fill="#DD8E69"/>
<path d="M211.339 198.885L208.644 201.832C208.644 201.832 209.518 199.257 211.339 198.885Z" fill="#DD8E69"/>
<path d="M156.62 208.802C156.62 208.802 154.966 208.188 153.404 210.103C153.395 210.103 155.57 208.802 156.62 208.802Z" fill="#DD8E69"/>
<path d="M229.296 201.256L278.033 271.247L298.33 260.577L261.155 182.454C260.104 180.199 258.612 178.177 256.765 176.509C254.918 174.841 252.756 173.561 250.405 172.745C248.054 171.928 245.564 171.592 243.081 171.756C240.598 171.92 238.173 172.581 235.951 173.7C233.542 174.913 231.426 176.636 229.75 178.749C228.073 180.863 226.877 183.315 226.244 185.937C225.611 188.559 225.556 191.287 226.083 193.933C226.61 196.578 227.707 199.077 229.296 201.256Z" fill="#091727"/>
<path d="M281.934 169.963C281.934 169.963 288.226 167.268 301.832 169.805C302.249 169.881 302.646 170.044 302.997 170.282C303.347 170.52 303.645 170.829 303.869 171.188C304.094 171.547 304.242 171.95 304.302 172.37C304.362 172.789 304.335 173.217 304.22 173.625L299.955 186.292L281.367 186.357L281.934 169.963Z" fill="#E95E2B"/>
<path d="M285.057 118.765L282.037 171.739C282.006 172.308 282.107 172.876 282.331 173.399C282.555 173.923 282.896 174.388 283.329 174.759C286.228 177.241 293.431 181.637 302.297 174.471C302.681 174.162 302.983 173.763 303.174 173.308C303.366 172.854 303.441 172.36 303.394 171.869L298.589 117.965L285.057 118.765Z" fill="#FFB895"/>
<path d="M280.049 172.24C279.615 173.863 279.753 175.586 280.44 177.12L279.659 187.268L279.074 177.51C279.074 177.51 276.927 173.997 280.049 172.24Z" fill="#DD4023"/>
<path d="M256.245 154.09L258.782 171.655C258.782 171.655 258.782 158.384 256.245 154.09Z" fill="#DD4023"/>
<path d="M170.151 147.77C169.899 147.77 169.649 147.805 169.407 147.872C169.956 148.033 170.439 148.368 170.782 148.826C171.125 149.284 171.311 149.842 171.311 150.414C171.311 150.987 171.125 151.544 170.782 152.002C170.439 152.46 169.956 152.795 169.407 152.956C169.649 153.023 169.899 153.058 170.151 153.058C170.825 153.018 171.458 152.722 171.921 152.231C172.384 151.739 172.642 151.089 172.642 150.414C172.642 149.739 172.384 149.089 171.921 148.597C171.458 148.106 170.825 147.81 170.151 147.77Z" fill="#DD8E69"/>
<path d="M303.796 101.599L303.359 104.387C303.138 105.807 302.523 107.136 301.584 108.225L297.421 113.067L301.566 107.24C302.012 106.617 302.363 105.931 302.607 105.205L303.796 101.599Z" fill="#DD8E69"/>
<path d="M224.178 125.14C224.178 125.14 222.096 130.214 226.65 131.515C226.65 131.515 223.787 130.474 224.178 125.14Z" fill="#052948"/>
<path d="M227.946 130.112C227.946 130.112 226.255 134.146 231.199 134.926C230.19 134.613 229.319 133.965 228.727 133.09C228.136 132.215 227.861 131.165 227.946 130.112Z" fill="#052948"/>
<path d="M226.258 106.023C226.258 106.023 226.388 111.227 231.333 110.056C231.333 110.056 227.69 110.447 226.258 106.023Z" fill="#052948"/>
<path d="M227.948 94.4429C227.948 94.4429 226.257 98.3462 230.16 99.7775C229.365 99.1523 228.744 98.3333 228.357 97.3992C227.97 96.4651 227.829 95.4471 227.948 94.4429Z" fill="#052948"/>
<path d="M189.046 94.3125C189.046 94.3125 190.087 98.8664 187.094 99.7772C187.094 99.7772 191.128 99.9073 189.046 94.3125Z" fill="#052948"/>
<path d="M184.881 97.8257C184.881 97.8257 188.003 102.119 184.36 104.722C184.36 104.722 186.442 102.77 184.881 97.8257Z" fill="#052948"/>
<path d="M153.526 165.865C153.526 165.865 153.396 168.467 149.632 168.467C148.549 168.451 147.475 168.65 146.47 169.052C145.465 169.454 144.549 170.051 143.777 170.809C143.777 170.809 144.818 168.077 149.241 167.817C150.065 167.902 150.896 167.767 151.649 167.424C152.402 167.08 153.05 166.542 153.526 165.865Z" fill="#052948"/>
<path d="M150.672 164.443C150.672 164.443 150.561 166.487 147.596 166.487C146.736 166.471 145.882 166.627 145.084 166.946C144.286 167.266 143.56 167.742 142.949 168.346C142.949 168.346 143.767 166.199 147.243 165.995C147.901 166.071 148.568 165.967 149.172 165.693C149.776 165.42 150.294 164.988 150.672 164.443Z" fill="#052948"/>
<path d="M231.9 293.235C231.9 293.235 235.617 292.845 236.974 294.797L231.9 293.235Z" fill="#DD8E69"/>
<path d="M182.28 288.942C182.28 288.942 186.927 287.771 188.33 292.259C186.691 290.574 184.583 289.418 182.28 288.942Z" fill="#DD8E69"/>
<path d="M129.202 296.553C129.202 296.553 126.275 298.895 128.617 301.823C128.617 301.823 128.031 299.871 129.202 296.553Z" fill="#DD8E69"/>
<path d="M118.517 308.263C119.491 306.473 120.977 305.016 122.785 304.077C124.594 303.138 126.641 302.761 128.665 302.994C128.665 302.994 123.545 302.975 118.517 308.263Z" fill="#DD8E69"/>
<path d="M280.634 295.54C280.634 295.54 283.757 295.15 284.351 297.882C284.351 297.882 292.158 296.126 295.671 297.687C295.671 297.687 286.889 297.102 283.589 299.444C283.509 298.582 283.19 297.761 282.667 297.071C282.145 296.382 281.441 295.851 280.634 295.54Z" fill="#DD8E69"/>
<path d="M204.547 236.99L203.692 234.611C203.239 233.356 202.334 232.316 201.155 231.692L198.255 230.159C197.381 229.703 196.44 229.389 195.467 229.229L193.608 228.904C192.027 228.636 190.506 228.085 189.119 227.278L156.127 208.179L146.768 222.399L179.854 238.848L181.712 241.023L186.592 245.401L191.815 250.233C192.536 250.834 193.433 251.186 194.37 251.237C194.512 251.254 194.657 251.231 194.786 251.171C194.916 251.11 195.026 251.014 195.103 250.894C195.181 250.773 195.223 250.634 195.225 250.491C195.227 250.348 195.188 250.207 195.114 250.085L194.668 249.099C195.02 249.299 195.422 249.395 195.827 249.375C196.232 249.356 196.623 249.221 196.954 248.988L197.159 248.849C197.593 248.547 197.899 248.094 198.018 247.578C198.136 247.063 198.059 246.522 197.8 246.06L197.698 245.875L198.199 246.06C198.455 246.157 198.732 246.181 198.999 246.128C199.267 246.076 199.515 245.949 199.714 245.763L200.133 245.382C200.39 245.143 200.555 244.821 200.597 244.472C200.64 244.123 200.557 243.771 200.365 243.477L200.049 243.012L200.198 243.059C200.546 243.182 200.919 243.22 201.284 243.168C201.65 243.116 201.998 242.977 202.298 242.761C202.692 242.464 202.976 242.045 203.107 241.569C203.238 241.094 203.209 240.588 203.023 240.131L202.41 238.644H202.465C202.714 238.786 202.999 238.851 203.285 238.829C203.57 238.807 203.843 238.701 204.067 238.523C204.291 238.344 204.457 238.103 204.542 237.83C204.628 237.557 204.63 237.264 204.547 236.99Z" fill="#FFB895"/>
<path d="M201.75 238.068L196.936 233.867C196.936 233.867 201.081 236.219 201.75 238.068Z" fill="#DD8E69"/>
<path d="M193.338 116.302C192.714 116.506 192.062 116.612 191.405 116.618C190.595 116.618 189.793 116.458 189.044 116.148C188.295 115.838 187.615 115.383 187.042 114.81C186.469 114.237 186.014 113.557 185.704 112.808C185.394 112.06 185.234 111.257 185.234 110.447C185.232 110.047 185.272 109.648 185.355 109.257L184.491 109.657C184.477 109.92 184.477 110.184 184.491 110.447C184.491 111.526 184.742 112.591 185.225 113.557C185.708 114.523 186.409 115.363 187.273 116.01C188.137 116.658 189.14 117.095 190.203 117.288C191.265 117.48 192.358 117.423 193.394 117.12L193.338 116.302Z" fill="white"/>
<path d="M118.442 90.7735C118.539 89.8495 118.158 89.0524 117.591 88.9932C117.024 88.9339 116.487 89.6349 116.39 90.5589C116.293 91.4829 116.674 92.28 117.241 92.3392C117.808 92.3985 118.345 91.6975 118.442 90.7735Z" fill="#081D32"/>
<path d="M129.594 92.272C129.691 91.348 129.31 90.5509 128.743 90.4917C128.177 90.4324 127.639 91.1334 127.542 92.0574C127.446 92.9814 127.827 93.7785 128.393 93.8378C128.96 93.897 129.498 93.196 129.594 92.272Z" fill="#081D32"/>
<path d="M120.261 83.8107L120.205 84.2661L115.558 83.6899C115.089 83.6261 114.612 83.697 114.183 83.8943L112.454 84.6936L113.876 83.2438C114.137 82.9793 114.453 82.7755 114.801 82.647C115.15 82.5185 115.522 82.4684 115.893 82.5003L119.489 82.807C119.721 82.8459 119.929 82.971 120.072 83.1572C120.215 83.3434 120.283 83.5769 120.261 83.8107Z" fill="#081D32"/>
<path d="M126.46 85.0839V85.5486L131.181 85.8088C131.651 85.8351 132.104 85.9894 132.492 86.2549L134.053 87.3516L132.91 85.6694C132.7 85.362 132.424 85.1051 132.103 84.9171C131.781 84.729 131.422 84.6146 131.051 84.5821L127.464 84.2475C127.22 84.2268 126.978 84.303 126.79 84.4596C126.602 84.6161 126.484 84.8405 126.46 85.0839Z" fill="#081D32"/>
<path d="M199.191 114.796C199.117 114.536 207.555 115.725 207.555 115.725C207.555 115.725 201.895 124.118 199.191 114.796Z" fill="white"/>
<path d="M204.015 106.729C204.229 106.727 204.443 106.758 204.647 106.822C204.179 106.954 203.767 107.235 203.474 107.623C203.181 108.01 203.022 108.483 203.022 108.969C203.022 109.455 203.181 109.928 203.474 110.315C203.767 110.703 204.179 110.984 204.647 111.116C204.442 111.175 204.229 111.206 204.015 111.209C203.421 111.209 202.852 110.973 202.431 110.553C202.011 110.133 201.775 109.563 201.775 108.969C201.775 108.375 202.011 107.805 202.431 107.385C202.852 106.965 203.421 106.729 204.015 106.729Z" fill="#DD8E69"/>
<path d="M164.205 139.462C164.558 139.451 164.909 139.52 165.231 139.665C165.553 139.81 165.838 140.026 166.063 140.298C166.063 140.298 160.831 140.419 159.874 141.766C159.874 141.804 160.571 139.564 164.205 139.462Z" fill="#081D32"/>
<path d="M162.323 145.614L161.449 145.289C161.69 144.622 162.184 144.078 162.825 143.774C163.434 143.478 164.134 143.431 164.777 143.645C165.419 143.859 165.953 144.315 166.263 144.917L165.436 145.345C165.242 144.968 164.909 144.681 164.507 144.545C164.297 144.468 164.073 144.434 163.85 144.445C163.626 144.456 163.407 144.513 163.206 144.61C162.792 144.817 162.475 145.177 162.323 145.614Z" fill="#081D32"/>
<path d="M173.294 144.889L172.42 144.573C172.668 143.908 173.16 143.363 173.796 143.049C174.109 142.897 174.45 142.81 174.798 142.792C175.146 142.775 175.494 142.827 175.822 142.947C176.434 143.171 176.94 143.615 177.244 144.192L176.417 144.629C176.219 144.237 175.874 143.939 175.458 143.802C175.041 143.664 174.587 143.697 174.195 143.895C173.777 144.097 173.454 144.453 173.294 144.889Z" fill="#081D32"/>
<path d="M173.134 138.672C172.793 138.722 172.467 138.849 172.181 139.042C171.895 139.235 171.655 139.489 171.48 139.787V139.833C171.48 139.833 176.657 139.118 177.818 140.298C177.79 140.335 176.75 138.198 173.134 138.672Z" fill="#081D32"/>
<path d="M210.673 96.3015C210.178 96.3092 209.691 96.4285 209.248 96.6506C208.806 96.8727 208.419 97.1917 208.117 97.5841L208.07 97.6398C208.07 97.6398 215.505 97.5376 216.983 99.4149C217.029 99.4428 215.877 96.2551 210.673 96.3015Z" fill="#081D32"/>
<path d="M198.889 94.5264C199.373 94.6289 199.827 94.8381 200.22 95.1388C200.612 95.4395 200.932 95.8241 201.157 96.2644V96.3294C201.157 96.3294 193.833 94.8238 192.068 96.4038C192.105 96.4038 193.796 93.5041 198.889 94.5264Z" fill="#081D32"/>
<path d="M198.114 102.946C198.679 102.946 199.137 102.277 199.137 101.45C199.137 100.624 198.679 99.9539 198.114 99.9539C197.55 99.9539 197.092 100.624 197.092 101.45C197.092 102.277 197.55 102.946 198.114 102.946Z" fill="#081D32"/>
<path d="M209.093 104.684C209.657 104.684 210.115 104.014 210.115 103.188C210.115 102.362 209.657 101.692 209.093 101.692C208.528 101.692 208.07 102.362 208.07 103.188C208.07 104.014 208.528 104.684 209.093 104.684Z" fill="#081D32"/>
<path d="M115.729 103.792L124.716 105.586C124.716 105.586 118.61 113.867 115.729 103.792Z" fill="white"/>
<path d="M176.027 151.822C176.15 151.822 176.25 151.722 176.25 151.599C176.25 151.476 176.15 151.376 176.027 151.376C175.904 151.376 175.804 151.476 175.804 151.599C175.804 151.722 175.904 151.822 176.027 151.822Z" fill="#F47D7D"/>
<path d="M178.442 151.822C178.539 151.822 178.618 151.702 178.618 151.553C178.618 151.404 178.539 151.283 178.442 151.283C178.344 151.283 178.265 151.404 178.265 151.553C178.265 151.702 178.344 151.822 178.442 151.822Z" fill="#F47D7D"/>
<path d="M177.753 153.235C177.881 153.235 177.985 153.118 177.985 152.975C177.985 152.831 177.881 152.714 177.753 152.714C177.625 152.714 177.521 152.831 177.521 152.975C177.521 153.118 177.625 153.235 177.753 153.235Z" fill="#F47D7D"/>
<path d="M160.598 152.816C160.721 152.816 160.821 152.717 160.821 152.593C160.821 152.47 160.721 152.37 160.598 152.37C160.475 152.37 160.375 152.47 160.375 152.593C160.375 152.717 160.475 152.816 160.598 152.816Z" fill="#F47D7D"/>
<path d="M163.013 152.817C163.11 152.817 163.189 152.696 163.189 152.547C163.189 152.398 163.11 152.278 163.013 152.278C162.915 152.278 162.836 152.398 162.836 152.547C162.836 152.696 162.915 152.817 163.013 152.817Z" fill="#F47D7D"/>
<path d="M162.328 154.238C162.456 154.238 162.56 154.122 162.56 153.978C162.56 153.835 162.456 153.718 162.328 153.718C162.199 153.718 162.095 153.835 162.095 153.978C162.095 154.122 162.199 154.238 162.328 154.238Z" fill="#F47D7D"/>
<path d="M166.459 156.302C166.459 156.302 169.916 155.995 174.368 155.372C174.368 155.335 172.212 164.053 166.459 156.302Z" fill="white"/>
<path d="M131.385 202.547C131.385 202.547 139.331 194.685 149.303 196.636C149.303 196.636 135.948 190.614 129.981 200.54L131.385 202.547Z" fill="#DD8E69"/>
</svg>
