<svg width="35" height="41" viewBox="0 0 35 41" fill="none" xmlns="http://www.w3.org/2000/svg">
<g clip-path="url(#clip0_2237_2023)">
<path d="M20.1014 0L13.1299 2.05962V39.4377H31.8358V6.42276L20.1014 0Z" fill="#182846"/>
<path d="M20.1014 0L13.1299 2.05962V40.0203H20.3589L20.1014 0Z" fill="#1360BB"/>
<path d="M19.5802 3.71273L31.8227 10.3997V9.20731L19.7021 2.5813L13.3945 4.45799V5.54878L19.5802 3.71273Z" fill="#133B7C"/>
<path d="M19.6005 8.50271L31.8227 14.2209V13.0691L19.6818 7.3916L13.3945 9.26152V10.3523L19.6005 8.50271Z" fill="#133B7C"/>
<path d="M19.614 13.3062L31.8227 18.1842V17.0596L19.8376 12.2628L19.6682 12.1951L13.3945 14.0582V15.1558L19.614 13.3062Z" fill="#133B7C"/>
<path d="M19.6276 18.1029L31.8227 22.3034V21.1991L19.6547 16.9985L13.3945 18.8617V19.9525L19.6276 18.1029Z" fill="#133B7C"/>
<path d="M19.6547 22.8929L31.8227 25.84V24.7628L19.7631 21.8427L19.6276 21.8088L13.3945 23.6652V24.756L19.6547 22.8929Z" fill="#133B7C"/>
<path d="M19.675 27.6896L31.8227 29.6476V28.5839L19.6073 26.6191L13.3945 28.4687V29.5595L19.675 27.6896Z" fill="#133B7C"/>
<path d="M19.7021 32.4864L31.8227 33.279V32.2357L19.5802 31.4294L13.3945 33.2655V34.363L19.7021 32.4864Z" fill="#133B7C"/>
<path d="M14.1871 10.1694L4.47168 14.6342V39.458H21.9785V14.2412L14.1871 10.1694Z" fill="#EB6625"/>
<path d="M14.187 10.1694V40.0204H21.9783V14.2412L14.187 10.1694Z" fill="#E6500F"/>
<path d="M13.9365 14.1464L19.465 16.145C19.736 16.2399 20.0341 16.1044 20.1357 15.8334C20.2305 15.5624 20.095 15.2643 19.824 15.1626L13.9026 13.0217L4.47852 17.1884V18.3334L13.9433 14.1464H13.9365Z" fill="#FEFEFE"/>
<path d="M13.9229 18.5095L19.4649 20.4743C19.7359 20.5691 20.034 20.4268 20.1356 20.1558C20.2305 19.8848 20.0882 19.5867 19.8172 19.4851L13.9161 17.3916L4.47168 20.9214V22.0393L13.9229 18.5095Z" fill="#FEFEFE"/>
<path d="M13.9296 22.8659L19.5055 24.3293C19.7833 24.4039 20.0678 24.2345 20.1424 23.9567C20.2169 23.6789 20.0475 23.3944 19.7697 23.3199L13.8957 21.7751L4.46484 24.8307V25.9283L13.9296 22.8592V22.8659Z" fill="#FEFEFE"/>
<path d="M13.9161 27.2426L19.4717 28.4147C19.7427 28.5095 20.0408 28.3605 20.1356 28.0895C20.2305 27.8185 20.0814 27.5204 19.8104 27.4255L13.9229 26.145L4.47168 29.2615V30.3659L13.9161 27.2494V27.2426Z" fill="#FEFEFE"/>
<path d="M13.9364 31.5922L19.7495 32.6085C20.034 32.6559 20.305 32.4662 20.3524 32.1816C20.3999 31.8971 20.2102 31.6261 19.9256 31.5786L13.9026 30.5217L4.47168 32.7643V33.8415L13.9364 31.5922Z" fill="#FEFEFE"/>
<path d="M34.4851 39.3496H0.514905C0.230531 39.3496 0 39.5801 0 39.8645V40.1829C0 40.4673 0.230531 40.6978 0.514905 40.6978H34.4851C34.7695 40.6978 35 40.4673 35 40.1829V39.8645C35 39.5801 34.7695 39.3496 34.4851 39.3496Z" fill="#182846"/>
<path d="M8.8416 34.8374L6.91748 35.0271V39.3496H8.8416V34.8374Z" fill="#FEFEFE"/>
<path d="M9.34961 34.79V39.3497H11.2737V34.6003L9.34961 34.79Z" fill="#FEFEFE"/>
<path d="M26.5986 34.8374L28.5228 35.0271V39.3496H26.5986V34.8374Z" fill="#FEFEFE"/>
<path d="M26.0906 34.79V39.3497H24.1665V34.6003L26.0906 34.79Z" fill="#FEFEFE"/>
<path d="M5.49463 14.7155V13.3266C5.49463 13.2588 5.53528 13.1979 5.58948 13.1708L12.5407 9.81709C12.6559 9.76289 12.7914 9.84419 12.7914 9.97292V11.5176C12.7914 11.5854 12.7507 11.6464 12.6898 11.6735L5.73853 14.8645C5.62336 14.9187 5.49463 14.8306 5.49463 14.7087V14.7155Z" fill="#182846"/>
</g>
<defs>
<clipPath id="clip0_2237_2023">
<rect width="35" height="40.6978" fill="white"/>
</clipPath>
</defs>
</svg>
