<svg width="33" height="31" viewBox="0 0 33 31" fill="none" xmlns="http://www.w3.org/2000/svg">
<path d="M29.771 11.3097L16.4092 1.86499L3.22925 11.3352L3.24179 28.0597L29.7835 28.0406L29.771 11.3097Z" fill="#EC6625"/>
<path d="M9.8004 1.11188L5.9944 1.06079L5.90662 8.34065L9.74397 6.03536L9.8004 1.11188Z" fill="#133B7C"/>
<path d="M10.1797 0.977938L5.62158 0.92041L5.6013 2.58699L10.1594 2.64451L10.1797 0.977938Z" fill="#EC6625"/>
<path d="M32.0219 13.4233L16.3965 2.37579L0.99069 13.4488L0 12.0184L16.3903 0.24292L33 11.9929L32.0219 13.4233Z" fill="#01305B"/>
<path d="M13.5437 14.9749H7.26099V23.4169H13.5437V14.9749Z" fill="white"/>
<path d="M13.0044 15.5945H7.8252V17.8615H13.0044V15.5945Z" fill="#133B7C"/>
<path d="M10.0762 18.4612H7.8252V23.423H10.0762V18.4612Z" fill="#133B7C"/>
<path d="M12.9856 18.4612H10.7346V23.423H12.9856V18.4612Z" fill="#133B7C"/>
<path d="M14.0515 23.417H6.7655V24.6942H14.0515V23.417Z" fill="white"/>
<path d="M24.0962 14.9814H17.036V26.8783H24.0962V14.9814Z" fill="white"/>
<path d="M23.5947 15.6963H17.5251V26.1627H23.5947V15.6963Z" fill="#133B7C"/>
<path d="M20.2339 16.6995H18.8357V18.9345H20.2339V16.6995Z" fill="#1360BC"/>
<path d="M22.3343 16.6995H20.936V18.9345H22.3343V16.6995Z" fill="#1360BC"/>
<path d="M23.0869 20.7668H22.7984C22.6911 20.7668 22.6041 20.8555 22.6041 20.9648V22.0823C22.6041 22.1917 22.6911 22.2803 22.7984 22.2803H23.0869C23.1942 22.2803 23.2812 22.1917 23.2812 22.0823V20.9648C23.2812 20.8555 23.1942 20.7668 23.0869 20.7668Z" fill="#182846"/>
<path d="M23.7139 21.0858H23.1496C23.1309 21.0503 23.1033 21.0204 23.0697 20.9991C23.0361 20.9779 22.9975 20.966 22.958 20.9647C22.9184 20.9634 22.8792 20.9727 22.8443 20.9917C22.8094 21.0107 22.78 21.0388 22.7591 21.073C22.7382 21.1072 22.7264 21.1464 22.7251 21.1867C22.7238 21.227 22.7329 21.2669 22.7514 21.3025C22.77 21.3381 22.7975 21.3681 22.8311 21.3894C22.8646 21.4108 22.9031 21.4228 22.9427 21.4242C22.9839 21.4253 23.0247 21.4144 23.0602 21.393C23.0956 21.3715 23.1245 21.3403 23.1433 21.3029H23.7139C23.7422 21.3029 23.7693 21.2915 23.7893 21.2711C23.8093 21.2507 23.8205 21.2231 23.8205 21.1943C23.8205 21.1656 23.8093 21.1379 23.7893 21.1176C23.7693 21.0972 23.7422 21.0858 23.7139 21.0858Z" fill="#FFF6F3"/>
<path d="M22.9426 21.8269C22.9338 21.826 22.925 21.8269 22.9166 21.8298C22.9083 21.8326 22.9006 21.8371 22.8941 21.8431C22.8876 21.8492 22.8824 21.8565 22.8789 21.8647C22.8754 21.8729 22.8736 21.8818 22.8736 21.8907C22.8738 21.903 22.8774 21.9149 22.8841 21.9251C22.8908 21.9353 22.9002 21.9433 22.9112 21.9482V22.1078H22.9739V21.9546C22.9855 21.9504 22.9954 21.9426 23.0022 21.9322C23.0089 21.9219 23.0122 21.9095 23.0115 21.8971C23.0141 21.8874 23.014 21.8772 23.0115 21.8674C23.0089 21.8577 23.0039 21.8489 22.9969 21.8418C22.9899 21.8347 22.9812 21.8296 22.9717 21.8269C22.9622 21.8243 22.9521 21.8243 22.9426 21.8269Z" fill="#FFF6F3"/>
<path d="M30.0781 26.5269H2.95325V30.6074H30.0781V26.5269Z" fill="#01305B"/>
<path d="M16.4968 9.71975C17.605 9.71975 18.5033 8.80486 18.5033 7.67628C18.5033 6.54771 17.605 5.63281 16.4968 5.63281C15.3887 5.63281 14.4904 6.54771 14.4904 7.67628C14.4904 8.80486 15.3887 9.71975 16.4968 9.71975Z" fill="white"/>
<path d="M16.4969 9.32366C17.3903 9.32366 18.1146 8.58603 18.1146 7.67611C18.1146 6.7662 17.3903 6.02856 16.4969 6.02856C15.6034 6.02856 14.8792 6.7662 14.8792 7.67611C14.8792 8.58603 15.6034 9.32366 16.4969 9.32366Z" fill="#133B7C"/>
<path d="M17.1551 6.17529L15.5939 9.03615C15.8597 9.22213 16.1743 9.32227 16.4968 9.32351C16.8657 9.32136 17.2228 9.19085 17.5089 8.95362C17.795 8.71639 17.9929 8.38669 18.0697 8.01919C18.1466 7.6517 18.0978 7.26849 17.9315 6.93312C17.7651 6.59775 17.4912 6.33036 17.1551 6.17529Z" fill="#1360BC"/>
<path d="M24.5478 26.5525H16.6411V27.7658H24.5478V26.5525Z" fill="#133B7C"/>
<path d="M24.9741 27.9062H16.2146V29.1196H24.9741V27.9062Z" fill="#133B7C"/>
<path d="M25.2187 29.2542H15.9764V30.4675H25.2187V29.2542Z" fill="#133B7C"/>
</svg>
