<svg width="64" height="45" viewBox="0 0 64 45" fill="none" xmlns="http://www.w3.org/2000/svg">
<path d="M56.98 11.6899H7.54004V42.3699H56.98V11.6899Z" fill="#004C82"/>
<path d="M56.97 13.6899V30.6299L7.54004 23.9899V18.3299L56.97 13.6899Z" fill="#182846"/>
<path d="M60.7897 11.1698L49.3797 4.02979H15.1297L3.71973 11.1698V11.2798H60.7897V11.1698Z" fill="#EC6625"/>
<path d="M9.42973 22.6498C12.5797 22.6498 15.1397 20.0898 15.1397 16.9398C15.1397 20.0898 17.6997 22.6498 20.8497 22.6498C23.9997 22.6498 26.5597 20.0898 26.5597 16.9398C26.5597 20.0898 29.1197 22.6498 32.2697 22.6498C35.4197 22.6498 37.9797 20.0898 37.9797 16.9398C37.9797 20.0898 40.5397 22.6498 43.6897 22.6498C46.8397 22.6498 49.3997 20.0898 49.3997 16.9398C49.3997 20.0898 51.9597 22.6498 55.1097 22.6498C58.2597 22.6498 60.8197 20.0898 60.8197 16.9398V11.2798H3.71973V16.9398C3.71973 20.0898 6.26973 22.6498 9.42973 22.6498Z" fill="#E6500F"/>
<path d="M19.9699 24.72H11.8999V42.81H19.9699V24.72Z" fill="#FEFEFE"/>
<path d="M28.6301 24.72H20.5601V42.81H28.6301V24.72Z" fill="#FEFEFE"/>
<path d="M22.1903 31.95H21.5303V36.47H22.1903V31.95Z" fill="#EC6625"/>
<path d="M19.0101 31.95H18.3501V36.47H19.0101V31.95Z" fill="#EC6625"/>
<path d="M42.6701 24.72H33.3301V32.82H42.6701V24.72Z" fill="#FEFEFE"/>
<path d="M53.5802 24.72H44.2402V32.82H53.5802V24.72Z" fill="#FEFEFE"/>
<path d="M62.8001 42.3701H1.71006C1.213 42.3701 0.810059 42.7731 0.810059 43.2701V44.0601C0.810059 44.5572 1.213 44.9601 1.71006 44.9601H62.8001C63.2971 44.9601 63.7001 44.5572 63.7001 44.0601V43.2701C63.7001 42.7731 63.2971 42.3701 62.8001 42.3701Z" fill="#182846"/>
<path d="M42.6598 0H21.8398V4.03H42.6598V0Z" fill="#182846"/>
</svg>
